<?xml version="1.0" encoding="UTF-8"?>
<svg version="1.1" xmlns="http://www.w3.org/2000/svg" width="2560" height="1707">
<path d="M0 0 C844.8 0 1689.6 0 2560 0 C2560 563.31 2560 1126.62 2560 1707 C1715.2 1707 870.4 1707 0 1707 C0 1143.69 0 580.38 0 0 Z " fill="#78BD1F" transform="translate(0,0)"/>
<path d="M0 0 C844.8 0 1689.6 0 2560 0 C2560 187.77 2560 375.54 2560 569 C2286.43 569 2012.86 569 1731 569 C1734.07996649 565.15004188 1736.36988632 562.70592039 1740.125 559.75 C1744.78716032 556.01282222 1749.25851483 552.13137582 1753.67578125 548.109375 C1755.72042335 546.25373343 1757.78784149 544.43243624 1759.875 542.625 C1764.20343748 538.85171281 1768.43191694 534.97152492 1772.65332031 531.07958984 C1774.7542789 529.14396842 1776.86027648 527.21418597 1778.97241211 525.29077148 C1786.54550227 518.37530587 1793.89369358 511.26318339 1801.13183594 503.99853516 C1802.8914348 502.23351456 1804.65640397 500.47398867 1806.421875 498.71484375 C1811.59135406 493.54844661 1816.68988062 488.38082734 1821.43408203 482.81542969 C1824.94294853 478.7474641 1828.70080373 474.89935771 1832.39453125 471 C1836.70894808 466.42653951 1840.89337977 461.76071843 1845 457 C1845.74056641 456.14269287 1845.74056641 456.14269287 1846.49609375 455.26806641 C1847.91711729 453.61880312 1849.33439742 451.96641788 1850.75 450.3125 C1851.26022705 449.71655029 1851.7704541 449.12060059 1852.29614258 448.5065918 C1863.96022578 434.87060744 1875.42647694 421.10882698 1886.46826172 406.96142578 C1888.0714245 404.9085393 1889.67830052 402.85859053 1891.28515625 400.80859375 C1909.59628477 377.40466632 1927.08036223 353.42616361 1944 329 C1944.58686081 328.15278381 1944.58686081 328.15278381 1945.18557739 327.28845215 C1952.46611156 316.76686573 1959.6047804 306.15550282 1966.6875 295.5 C1967.69715508 293.98299934 1968.70692029 292.46607197 1969.71679688 290.94921875 C1972.14579342 287.30031734 1974.57332642 283.65044664 1977 280 C1974.4899355 280.6108891 1971.98106032 281.22610903 1969.47265625 281.84375 C1968.77289673 282.01358398 1968.07313721 282.18341797 1967.35217285 282.35839844 C1961.3339655 283.84600615 1955.54376683 285.77747604 1949.6796875 287.7890625 C1944.94343048 289.34770334 1940.15295515 290.59212042 1935.328125 291.84375 C1922.46455615 295.22825429 1909.73531059 299.16571294 1897 303 C1889.31803059 305.31041407 1881.63174546 307.60577179 1873.9375 309.875 C1872.89529297 310.18566406 1871.85308594 310.49632812 1870.77929688 310.81640625 C1869.80927734 311.10128906 1868.83925781 311.38617188 1867.83984375 311.6796875 C1866.97738037 311.93476074 1866.11491699 312.18983398 1865.22631836 312.45263672 C1863 313 1863 313 1860 313 C1859.58137695 313.87700562 1859.58137695 313.87700562 1859.15429688 314.77172852 C1858.06898529 316.86682979 1856.88848709 318.72542425 1855.53125 320.65234375 C1854.80591064 321.68343262 1854.80591064 321.68343262 1854.06591797 322.73535156 C1853.29078857 323.82541504 1853.29078857 323.82541504 1852.5 324.9375 C1851.96391113 325.69385742 1851.42782227 326.45021484 1850.87548828 327.22949219 C1846.08200254 333.95485063 1841.08133947 340.49030339 1836 347 C1834.80175764 348.57085456 1833.60352863 350.14172026 1832.40698242 351.71386719 C1823.11022258 363.90109111 1813.34825189 375.72091001 1803.39013672 387.37158203 C1801.93465989 389.07653996 1800.48473947 390.7861233 1799.03515625 392.49609375 C1793.34613406 399.19046394 1787.5486508 405.75866246 1781.578125 412.203125 C1779.20716782 414.77525431 1776.88129113 417.38093376 1774.5625 420 C1770.62952075 424.39194451 1766.49406577 428.54163401 1762.29882812 432.6796875 C1759.59269545 435.36162741 1757.00599379 438.07750867 1754.5625 441 C1751.04224431 445.13694282 1747.06423853 448.71067147 1743.05029297 452.35620117 C1739.32397766 455.74856938 1735.72878103 459.22689139 1732.1875 462.8125 C1728.57960648 466.45688956 1724.91496992 469.93691592 1721.015625 473.265625 C1718.69885379 475.25912581 1716.44580016 477.31554388 1714.1875 479.375 C1709.92119411 483.22050182 1705.548307 486.89731266 1701.08203125 490.5078125 C1698.86080631 492.30393609 1696.65099623 494.11008536 1694.44921875 495.9296875 C1669.37160078 516.59071743 1642.81011575 535.32772328 1615 552.125 C1614.29125732 552.55490234 1613.58251465 552.98480469 1612.85229492 553.42773438 C1611.31950355 554.34307444 1609.77329809 555.23620029 1608.21673203 556.11049938 C1605.73852414 557.5661927 1603.38804082 559.07740957 1601.00749588 560.67896748 C1586.92378572 569.74065368 1574.92650926 570.52672782 1558.49511719 570.2487793 C1555.89121636 570.24566944 1553.28730591 570.24743188 1550.68341064 570.25364685 C1545.11956509 570.25936322 1539.55715877 570.22540482 1533.99367523 570.16303062 C1525.95047793 570.07291509 1517.9079632 570.04491292 1509.8643159 570.03116272 C1496.80856536 570.00719845 1483.75357886 569.9342996 1470.69824219 569.82983398 C1458.0303118 569.72857488 1445.36259033 569.65085557 1432.69433594 569.60424805 C1431.91102357 569.60135809 1431.12771121 569.59846813 1430.32066211 569.5954906 C1426.39028129 569.58113324 1422.459899 569.56723292 1418.52951574 569.55355966 C1386.01912135 569.4398712 1353.50966365 569.24643387 1321 569 C1320.79787492 502.96330811 1320.79787492 502.96330811 1321.80064994 470.75249481 C1322.06534128 462.15930013 1322.22818211 453.5644133 1322.38891602 444.96875 C1322.41918079 443.37755276 1322.44947427 441.78635606 1322.47979641 440.19515991 C1322.55670566 436.13748934 1322.63215709 432.07979292 1322.70718122 428.0220871 C1322.77136203 424.55778541 1322.83629687 421.09349797 1322.90118736 417.62920952 C1323.05438136 409.44846633 1323.20621714 401.26769875 1323.35717773 393.08691406 C1323.51125829 384.73864059 1323.66796266 376.39041912 1323.82587105 368.04221725 C1323.96338723 360.76639097 1324.09914317 353.49053318 1324.23357147 346.2146492 C1324.31302891 341.91529645 1324.39311236 337.61595803 1324.47497749 333.31665039 C1324.50609661 331.67529349 1324.53718868 330.03393607 1324.56825256 328.39257812 C1324.58338341 327.59679226 1324.59851426 326.80100639 1324.61410362 325.9811058 C1324.68587677 322.1425374 1324.75174515 318.30403624 1324.80397892 314.46514893 C1324.8138344 313.74320217 1324.82368988 313.02125542 1324.83384401 312.27743149 C1324.85312811 310.86159433 1324.87219629 309.4457542 1324.89103478 308.02991104 C1324.95697501 303.56856588 1325.10237247 299.11520374 1325.28414917 294.65722656 C1325.34823673 292.49283946 1325.41229541 290.32845151 1325.47631836 288.1640625 C1325.53263459 287.21711517 1325.58895082 286.27016785 1325.64697361 285.29452515 C1325.72975578 281.55623654 1325.75252595 279.0418352 1323.5177784 275.94793701 C1321.75407054 274.18004648 1319.91107951 272.60466846 1318 271 C1316.93574309 269.8115152 1315.89103675 268.60496269 1314.875 267.375 C1311.59487493 263.56055592 1308.07475851 260.03436006 1304.5 256.5 C1300.41197757 252.45802034 1296.48584443 248.37550972 1292.765625 243.98828125 C1289.0469754 239.8006869 1284.99457235 235.92223603 1281 232 C1280.22221599 238.46850695 1279.72569775 244.89802694 1279.40640259 251.40402222 C1279.35457868 252.41547306 1279.30275477 253.42692391 1279.24936044 254.46902478 C1279.07724389 257.84104111 1278.9089859 261.21323858 1278.74072266 264.58544922 C1278.61759836 267.01319541 1278.49423496 269.44092949 1278.37065125 271.86865234 C1278.10496371 277.09848001 1277.84093547 282.32838864 1277.57841873 287.55837631 C1277.19564005 295.18415623 1276.80979551 302.80977872 1276.42324834 310.43536843 C1275.79176761 322.89446855 1275.16269734 335.35368916 1274.53515625 347.81298828 C1273.93316682 359.76487207 1273.33014253 371.71670281 1272.72558594 383.66845703 C1272.68871393 384.3974046 1272.65184192 385.12635217 1272.61385258 385.87738906 C1272.42842421 389.54310012 1272.24297207 393.20880997 1272.05750585 396.87451911 C1271.69020495 404.13420602 1271.3230216 411.39389888 1270.9559021 418.65359497 C1270.92004924 419.36256751 1270.88419638 420.07154005 1270.84725706 420.8019966 C1270.26376706 432.34084192 1269.68130531 443.87973883 1269.09945977 455.4186672 C1268.77966763 461.76038062 1268.45965801 468.10208286 1268.13903236 474.4437542 C1268.0133611 476.92960476 1267.88769162 479.41545541 1267.76202393 481.90130615 C1267.70003968 483.12728881 1267.63805544 484.35327148 1267.57419288 485.61640513 C1267.20970353 492.83118129 1266.84715419 500.04605137 1266.48649205 507.26101961 C1266.18048637 513.38174638 1265.8728379 519.50238966 1265.5647285 525.62301087 C1265.43581444 528.19031099 1265.30750239 530.75764142 1265.17984509 533.32500434 C1265.00310546 536.87821969 1264.82421417 540.43132096 1264.64486694 543.98440552 C1264.59426424 545.0125755 1264.54366153 546.04074549 1264.49152541 547.10007215 C1264.11944275 554.41084926 1263.59084797 561.70377371 1263 569 C1243.52743967 569.27980785 1224.05539011 569.49254443 1204.58122635 569.62174606 C1195.53685281 569.68335904 1186.49375154 569.76719852 1177.45019531 569.90527344 C1169.55838037 570.02570535 1161.66748755 570.10248997 1153.77477908 570.12906194 C1149.60348343 570.14457172 1145.43482322 570.18043054 1141.26438141 570.26876068 C1122.88699245 570.64305594 1107.81140784 570.45472365 1092.76607418 558.40875626 C1090.39950814 556.52100163 1087.88323114 554.89577404 1085.33984375 553.2578125 C1083.86683551 552.22139961 1082.39917317 551.17733858 1080.9375 550.125 C1079.71873169 549.25875 1079.71873169 549.25875 1078.4753418 548.375 C1075.97668485 546.59269062 1073.4874725 544.79787616 1071 543 C1070.19143555 542.41959961 1069.38287109 541.83919922 1068.54980469 541.24121094 C1056.98955707 532.92952749 1045.86645744 524.19819648 1035 515 C1034.0423877 514.19103271 1034.0423877 514.19103271 1033.06542969 513.36572266 C1026.48908633 507.79915963 1019.9721585 502.17019274 1013.60253906 496.3671875 C1011.93395088 494.84949228 1010.25955432 493.33814411 1008.57788086 491.83496094 C999.50171639 483.64910368 990.87399131 475.0259688 982.24389648 466.37426758 C979.67870537 463.80368689 977.10817269 461.23853407 974.53710938 458.67382812 C972.88249156 457.01854992 971.22818375 455.36296175 969.57421875 453.70703125 C968.81678879 452.95162552 968.05935883 452.19621979 967.27897644 451.41792297 C963.19513098 447.31623628 959.27219547 443.13006784 955.50065613 438.73876953 C953.27414313 436.15896935 950.94768119 433.68106914 948.625 431.1875 C944.28119787 426.49105346 940.19583574 421.63725046 936.18359375 416.65234375 C934.00602932 414.00732363 931.74681237 411.46787475 929.4375 408.9375 C925.88678992 405.03233004 922.54606304 401.02079434 919.28125 396.875 C917.54884168 394.69169089 915.80033068 392.52827497 914.03125 390.375 C907.56395582 382.49858135 901.3033866 374.51194485 895.23046875 366.328125 C892.21841622 362.27427443 889.14678732 358.26784214 886.07104492 354.26220703 C878.98894351 345.03034597 872.11941594 335.69112486 865.48632812 326.13232422 C863.9765809 323.96640236 862.45132547 321.81220218 860.921875 319.66015625 C853.19347223 308.75507657 845.72585766 297.68298913 838.3125 286.5625 C837.82283752 285.82845947 837.33317505 285.09441895 836.82867432 284.33813477 C835.42189423 282.22781692 834.01711941 280.11618203 832.61328125 278.00390625 C832.19197433 277.37134415 831.77066742 276.73878204 831.33659363 276.08705139 C829.13829152 272.77212207 827.01502667 269.42956484 825 266 C820.87725115 266.64200115 816.86277414 267.47271614 812.81640625 268.48828125 C811.64964355 268.78025391 810.48288086 269.07222656 809.28076172 269.37304688 C808.05373535 269.68306641 806.82670898 269.99308594 805.5625 270.3125 C804.29422363 270.63154297 803.02594727 270.95058594 801.71923828 271.27929688 C793.84664747 273.26539429 785.98578771 275.28291295 778.15136719 277.41503906 C773.26957727 278.74240727 768.38458119 280.05794861 763.5 281.375 C762.3850415 281.67575439 761.27008301 281.97650879 760.12133789 282.28637695 C752.69340185 284.28602076 745.25726857 286.25151258 737.8125 288.1875 C736.8539209 288.43685303 735.8953418 288.68620605 734.90771484 288.94311523 C733.08480621 289.41718583 731.26188995 289.89122711 729.43896484 290.36523438 C721.55388453 292.41740743 713.6861142 294.52036943 705.84375 296.73046875 C704.73821777 297.04185791 703.63268555 297.35324707 702.49365234 297.67407227 C700.30056212 298.29315376 698.10814142 298.91461358 695.91650391 299.53881836 C689.97398732 301.21867343 684.04287147 302.7258246 678 304 C679.66185426 308.54358025 681.89871634 312.6626527 684.25 316.875 C684.68256104 317.65093506 685.11512207 318.42687012 685.56079102 319.22631836 C694.73692049 335.52963215 704.69398522 351.39058815 715 367 C715.79591553 368.20922119 715.79591553 368.20922119 716.60791016 369.44287109 C735.88980066 398.70218056 756.31055312 427.06293532 778.51171875 454.1796875 C779.81409379 455.77261865 781.11066032 457.3702952 782.40625 458.96875 C791.12679782 469.71145383 800.13997933 480.16724636 809.5390625 490.3203125 C811.63103854 492.59824197 813.67127434 494.90533939 815.6875 497.25 C818.65515642 500.67803271 821.8293258 503.84709695 825.05859375 507.02734375 C826.81789239 508.81496108 828.44509536 510.64726126 830.0625 512.5625 C837.72438705 521.46017528 846.27738749 529.89083911 855.24609375 537.46484375 C857.25833482 539.22611488 859.12371986 541.09479839 861 543 C864.83539252 546.87981791 868.85077047 550.46075413 873 554 C874.80246856 555.53939988 876.60447159 557.07933847 878.40576172 558.62011719 C879.65738504 559.69000672 880.91027526 560.75841629 882.16455078 561.82519531 C882.74575684 562.32116211 883.32696289 562.81712891 883.92578125 563.328125 C884.44567627 563.7705957 884.96557129 564.21306641 885.5012207 564.66894531 C887.05763373 566.05118409 888.52809553 567.52809553 890 569 C596.3 569 302.6 569 0 569 C0 381.23 0 193.46 0 0 Z " fill="#008FD9" transform="translate(0,0)"/>
<path d="M0 0 C11.06029681 0.97818191 21.8723346 2.13364432 32.73632812 4.51855469 C35.45921351 5.09766707 38.18943695 5.63184754 40.921875 6.1640625 C52.05252666 8.33433284 63.10600161 10.60191281 74.07249451 13.49441528 C75.84558023 13.95949569 77.62128643 14.41455531 79.3972168 14.86865234 C89.12670418 17.39138937 98.66001542 20.3653601 108.1875 23.5625 C109.35860825 23.95458145 109.35860825 23.95458145 110.55337524 24.35458374 C156.89654281 39.91747814 201.18134304 60.69952568 243 86 C243.8667334 86.52094238 244.7334668 87.04188477 245.62646484 87.57861328 C265.94816458 99.82408617 285.88451425 112.93971944 305 127 C306.53249921 128.11986402 308.06505567 129.23964971 309.59765625 130.359375 C318.82781881 137.11852802 327.97928955 143.96361776 337 151 C337.80800049 151.62672607 337.80800049 151.62672607 338.63232422 152.26611328 C352.85072734 163.29541929 366.68679627 174.77822711 380.30273438 186.54101562 C382.01204674 188.01035548 383.73095199 189.46763872 385.453125 190.921875 C392.36960816 196.77532836 399.09489705 202.78711982 405.67553711 209.01708984 C408.65404967 211.83351494 411.66182394 214.5961386 414.76074219 217.2800293 C429.92125037 230.51720564 444.05099261 244.89139377 458.26025391 259.12988281 C461.08614097 261.96152901 463.91658309 264.78857332 466.74831581 267.61437225 C468.96362047 269.82604574 471.17651668 272.04011673 473.38871384 274.25489807 C474.43163415 275.29847735 475.47527511 276.34133703 476.51970291 277.38340759 C481.73141931 282.58591229 486.8627452 287.81479884 491.64266968 293.42248535 C493.33225855 295.38615709 495.13698501 297.20122691 497 299 C500.10246002 302.06117253 502.98106424 305.23142268 505.8203125 308.53515625 C508.81343907 311.91985672 511.90843154 315.2053358 515 318.5 C519.76531751 323.58696407 524.4773844 328.69462401 529 334 C530.9572932 336.29255669 532.91590474 338.58398314 534.875 340.875 C535.39505615 341.4839209 535.9151123 342.0928418 536.45092773 342.72021484 C539.47957834 346.25719364 542.55187183 349.74434963 545.6875 353.1875 C550.32736877 358.29475482 554.6767212 363.62400793 559 369 C563.87440686 368.32177439 568.02330285 366.38048007 572.47265625 364.38671875 C573.29955963 364.02118896 574.12646301 363.65565918 574.97842407 363.27905273 C576.75247156 362.49429391 578.52553388 361.70730494 580.29769897 360.91830444 C584.96226925 358.84178112 589.63403501 356.7815465 594.3046875 354.71875 C595.23180038 354.30872238 596.15891327 353.89869476 597.11412048 353.47624207 C604.61657441 350.16063272 612.14212703 346.90421455 619.6875 343.6875 C629.09519537 339.67286961 638.49130567 335.63284232 647.875 331.5625 C648.49463623 331.29381104 649.11427246 331.02512207 649.75268555 330.74829102 C655.4813198 328.26416656 661.20915423 325.77820299 666.93603516 323.29003906 C692.95333796 311.98651993 692.95333796 311.98651993 704.25 307.1875 C705.02432373 306.85580811 705.79864746 306.52411621 706.59643555 306.18237305 C711.76571829 304 711.76571829 304 714 304 C708.79260142 297.86198958 703.26619104 292.11400903 697.5625 286.4375 C696.35110352 285.22030273 696.35110352 285.22030273 695.11523438 283.97851562 C691.55228342 280.42130674 687.9821423 276.92997908 684.15234375 273.66015625 C677.89527708 268.27878234 672.21208969 262.26669085 666.41796875 256.39746094 C661.02553715 250.9414709 655.63713671 245.55774785 649.796875 240.57421875 C646.71089141 237.87062878 643.8685957 234.93030339 641 232 C636.72900863 227.67909532 632.42837002 223.49891759 627.7890625 219.5703125 C625.13859077 217.24391592 622.69858022 214.72352951 620.25 212.1875 C618.30563876 210.2971488 616.32087883 208.51831145 614.2734375 206.7421875 C609.94613494 202.98358181 605.78055114 199.07151462 601.625 195.125 C596.27254537 190.06415029 590.89482727 185.04513571 585.39453125 180.14453125 C582.53104423 177.58000535 579.70311885 174.97837931 576.875 172.375 C572.95693817 168.77260263 569.00402212 165.21868926 564.98046875 161.734375 C562.68866845 159.72735462 560.44003248 157.67597149 558.1875 155.625 C554.72469918 152.49577173 551.19320997 149.49499651 547.5625 146.5625 C543.75912497 143.48663412 540.09917348 140.31246834 536.5 137 C532.11105254 132.96489979 527.59137234 129.16169696 522.953125 125.41796875 C519.56641218 122.64498564 516.25058257 119.79760291 512.9375 116.9375 C508.27854704 112.92348862 503.57280921 108.99582714 498.74609375 105.18359375 C495.89965204 102.92020696 493.08216508 100.62402711 490.26635742 98.32275391 C483.24046758 92.58487511 476.15288748 86.95613597 468.92919922 81.46826172 C466.67940044 79.75600028 464.43543072 78.036228 462.19140625 76.31640625 C449.37518007 66.50620459 436.47896678 56.80513158 423.37109375 47.38671875 C421.85708984 46.29810547 421.85708984 46.29810547 420.3125 45.1875 C419.46300781 44.58292969 418.61351562 43.97835938 417.73828125 43.35546875 C417.16464844 42.90816406 416.59101562 42.46085937 416 42 C416 41.67 416 41.34 416 41 C691.22 41 966.44 41 1250 41 C1250 228.77 1250 416.54 1250 610 C405.2 610 -439.6 610 -1310 610 C-1310 422.23 -1310 234.46 -1310 41 C-1045.67 41 -781.34 41 -509 41 C-510.65 42.32 -512.3 43.64 -514 45 C-515.2135761 45.98272682 -516.42590505 46.96699665 -517.63671875 47.953125 C-518.2910791 48.48558838 -518.94543945 49.01805176 -519.61962891 49.56665039 C-520.6432251 50.39990845 -520.6432251 50.39990845 -521.6875 51.25 C-526.14691566 54.87988578 -530.61376195 58.49704563 -535.125 62.0625 C-548.444956 72.70507791 -561.24656398 84.05822006 -573.19140625 96.2265625 C-574.97782505 97.9782561 -576.83330548 99.58045551 -578.75 101.1875 C-584.10430725 105.7978624 -588.73675253 111.08626002 -593.46972656 116.31689453 C-594.93517017 117.92869547 -596.41353144 119.52722701 -597.8984375 121.12109375 C-602.98507724 126.58969566 -607.89149823 132.16216476 -612.57421875 137.984375 C-614.35359865 140.19642216 -616.14630553 142.39206839 -617.95703125 144.578125 C-666.98841446 203.94459159 -701.99478529 272.89550904 -728 345 C-726.8759375 344.731875 -725.751875 344.46375 -724.59375 344.1875 C-715.06414816 341.95476128 -705.51745068 339.88021781 -695.9140625 337.9921875 C-694.5883725 337.73094086 -694.5883725 337.73094086 -693.23590088 337.4644165 C-688.76394255 336.58483124 -684.29039417 335.71455062 -679.81445312 334.85546875 C-678.12886612 334.52624708 -676.44331763 334.1968281 -674.7578125 333.8671875 C-673.99385162 333.72352753 -673.22989075 333.57986755 -672.44277954 333.43185425 C-664.25039301 331.81602902 -657.82686353 329.87707006 -652.5625 323 C-652.09642334 322.42113037 -651.63034668 321.84226074 -651.15014648 321.24584961 C-650.20120481 320.06513504 -649.25911738 318.87887653 -648.32421875 317.68701172 C-646.43793744 315.28395053 -644.4998282 312.92449615 -642.5625 310.5625 C-641.83804688 309.67304687 -641.11359375 308.78359375 -640.3671875 307.8671875 C-636.17144212 302.78521208 -631.85924452 297.80343543 -627.55712891 292.81152344 C-626.00548064 291.00637604 -624.46066415 289.19561441 -622.91796875 287.3828125 C-617.45564703 280.96964865 -611.9206709 274.65069588 -606.2265625 268.44140625 C-604.30866793 266.33845167 -602.42623955 264.21330844 -600.5625 262.0625 C-596.29005812 257.14969212 -591.8669984 252.37528161 -587.45703125 247.58642578 C-585.99806655 245.99789485 -584.54504223 244.40413504 -583.09375 242.80859375 C-578.72541423 238.01117179 -574.33421835 233.26975174 -569.6965332 228.72900391 C-568.07891992 227.0804304 -566.59448386 225.37795915 -565.10546875 223.61328125 C-560.26260332 218.04813339 -555.02642289 212.87688861 -549.80297852 207.67260742 C-548.066064 205.941053 -546.33456111 204.20421641 -544.60351562 202.46679688 C-539.40701997 197.26750786 -534.19997897 192.15817551 -528.60327148 187.38500977 C-526.45573074 185.52982495 -524.47530664 183.53608531 -522.5 181.5 C-519.16879193 178.12899935 -515.74888372 174.9548597 -512.15234375 171.87109375 C-509.61947838 169.66920171 -507.15667478 167.39804174 -504.6875 165.125 C-500.22477168 161.05459944 -495.63742 157.19823091 -490.9375 153.40625 C-487.63644719 150.70219611 -484.41278397 147.9184058 -481.1875 145.125 C-474.93576735 139.73656955 -468.53814027 134.58067045 -461.99804688 129.54736328 C-459.85649815 127.88886672 -457.73326958 126.20837786 -455.609375 124.52734375 C-434.28866709 107.80883628 -411.42015547 92.62005915 -388 79 C-387.39188477 78.64292969 -386.78376953 78.28585937 -386.15722656 77.91796875 C-340.95996135 51.4868195 -293.01837524 32.54054171 -242 21 C-240.99340332 20.77038574 -239.98680664 20.54077148 -238.94970703 20.30419922 C-218.85666931 15.74160228 -198.91575476 12.6046137 -178.43408203 10.375 C-175.06845683 10.00747545 -171.7041286 9.62957555 -168.33984375 9.25 C-149.58816593 7.15952863 -130.80523362 5.51729537 -112 4 C-111.32855957 3.94565796 -110.65711914 3.89131592 -109.96533203 3.83532715 C-105.62343146 3.48487298 -101.28078041 3.14538469 -96.9375 2.8125 C-95.33442993 2.68669556 -95.33442993 2.68669556 -93.69897461 2.55834961 C-92.69358643 2.48366455 -91.68819824 2.40897949 -90.65234375 2.33203125 C-89.36831665 2.23498901 -89.36831665 2.23498901 -88.05834961 2.13598633 C-85.30118557 2.0133919 -82.56813974 1.9866241 -79.80885315 1.99150085 C-78.90832498 1.99272792 -78.0077968 1.99395498 -77.0799799 1.99521923 C-76.39358653 1.99679688 -75.70719316 1.99837454 -75 2 C-74.76891268 19.32039433 -75.44326955 36.52473996 -76.390625 53.81640625 C-76.53803492 56.57785115 -76.68356055 59.33939455 -76.82913208 62.10093689 C-77.13688167 67.92183 -77.4487955 73.7424864 -77.76385498 79.56298828 C-78.25419697 88.62241146 -78.73639664 97.68225827 -79.21728516 106.7421875 C-79.37803041 109.76895417 -79.53883704 112.79571758 -79.69967651 115.82247925 C-79.73932781 116.56874002 -79.77897911 117.3150008 -79.81983197 118.08387554 C-80.09870803 123.33023204 -80.37880021 128.57652276 -80.65945435 133.82278442 C-81.56608333 150.77539811 -82.45874413 167.72861821 -83.3203125 184.68359375 C-83.36769058 185.61514345 -83.41506866 186.54669315 -83.46388245 187.50647163 C-83.84938122 195.09048685 -84.23299977 202.67459613 -84.61437988 210.25881958 C-84.79919823 213.93370331 -84.98528602 217.60852078 -85.1722374 221.28329659 C-85.26779448 223.16984212 -85.3617461 225.05646879 -85.45559692 226.94309998 C-86.40220246 245.54141118 -86.40220246 245.54141118 -87.34457397 254.1463623 C-87.78734716 258.35600821 -87.79706031 260.91486689 -85.23828125 264.3984375 C-82.91112085 266.71374479 -80.47848703 268.84878501 -78 271 C-76.84866431 272.26824836 -75.72183459 273.55933224 -74.625 274.875 C-71.73785219 278.24557721 -68.65753382 281.38504207 -65.5 284.5 C-61.75969175 288.18994221 -58.21760652 291.97503696 -54.80859375 295.97265625 C-52.63041508 298.41428634 -50.32751992 300.70048032 -48 303 C-45.06881809 305.89591958 -42.23596826 308.80242571 -39.5625 311.9375 C-36.69827665 315.28925073 -33.63666284 318.40556756 -30.5 321.5 C-26.76968633 325.18009066 -23.23503783 328.95368123 -19.8359375 332.94140625 C-16.08524264 337.14697262 -12.01247689 341.04657115 -8 345 C-6.93323323 327.67250087 -6.65208761 310.33443972 -6.35850501 292.98099422 C-6.28657388 288.77526912 -6.21070839 284.56961492 -6.13520813 280.36395264 C-6.00721003 273.21069325 -5.88116785 266.05740196 -5.75653076 258.90408325 C-5.44934587 241.28622616 -5.13095763 223.66856918 -4.81161594 206.05092883 C-4.7617026 203.29598356 -4.71189731 200.54103635 -4.66210175 197.78608894 C-4.13601411 168.70990955 -3.55595238 139.63552137 -2.875 110.5625 C-2.84438351 109.25521879 -2.84438351 109.25521879 -2.8131485 107.92152786 C-2.71395238 103.69161161 -2.61442249 99.46170323 -2.51483154 95.23179626 C-2.48673023 94.03818639 -2.48673023 94.03818639 -2.45806122 92.82046318 C-2.42136621 91.26392866 -2.38458952 89.70739607 -2.34772491 88.15086555 C-2.10122986 77.7299082 -1.88184538 67.30886197 -1.69140625 56.88671875 C-1.66872681 55.65027115 -1.64604736 54.41382355 -1.62268066 53.13990784 C-1.52375665 47.68782676 -1.42878532 42.23572379 -1.34130859 36.78344727 C-1.1338896 24.50720407 -0.65118161 12.2606632 0 0 Z " fill="#FDDC00" transform="translate(1310,1097)"/>
<path d="M0 0 C1.42250279 -0.00199078 2.84500389 -0.00617956 4.26749462 -0.01236621 C8.18940075 -0.02302354 12.11062035 -0.00237435 16.03243451 0.02323002 C20.29399237 0.04554597 24.55551875 0.03882627 28.81712019 0.03574163 C36.29021423 0.03435384 43.76308638 0.05160899 51.23612022 0.08096981 C62.34825132 0.12454433 73.46029085 0.13947377 84.57249714 0.14846363 C103.26382416 0.16439988 121.95503453 0.20367177 140.64629173 0.25616741 C159.15739327 0.30808109 177.66847039 0.34966938 196.17962456 0.37741756 C197.32987995 0.37914761 198.48013534 0.38087765 199.66524695 0.38266012 C205.50663027 0.39139201 211.34801384 0.39993893 217.18939753 0.40841464 C258.58171091 0.46880676 299.97394813 0.55242532 341.36618996 0.6496706 C381.58231909 0.7440997 421.79844769 0.82794367 462.01462746 0.89771748 C464.542829 0.90211867 467.07103054 0.90652017 469.59923208 0.91092199 C490.1413824 0.94663098 510.68353397 0.98160832 531.22568585 1.01640824 C626.25030767 1.17791467 721.27473934 1.39289537 816.29929543 1.59962177 C816.29929543 189.36962177 816.29929543 377.13962177 816.29929543 570.59962177 C607.11549495 571.29503173 607.11549495 571.29503173 527.01686919 571.47674763 C506.07168468 571.52432167 485.12650146 571.57241039 464.18132182 571.62208539 C461.64783838 571.62809259 459.1143549 571.63408361 456.58087138 571.64005823 C416.19173006 571.73544074 375.80280138 571.86648721 335.41382782 572.01617255 C293.90373567 572.16982374 252.39369423 572.28735075 210.88337645 572.35942276 C205.02039356 572.36961918 199.15741148 572.38022857 193.29442978 572.39108944 C191.56355082 572.39427664 191.56355082 572.39427664 189.79770461 572.39752824 C171.22242861 572.43279444 152.64748879 572.50614217 134.07239395 572.59373149 C115.3982647 572.68097508 96.72437547 572.72809786 78.05004042 572.73430672 C66.95492153 572.73921388 55.86089375 572.77484203 44.76605483 572.85455667 C37.35135043 572.90479692 29.93728715 572.91488296 22.52244804 572.89259127 C18.29913732 572.88103608 14.0778385 572.88667883 9.85482197 572.94138195 C-20.08912396 573.30931144 -20.08912396 573.30931144 -29.68043679 564.71607093 C-31.04551165 563.3687756 -32.37489102 561.98557001 -33.70070457 560.59962177 C-35.17398273 559.53447034 -36.671859 558.50004145 -38.21632957 557.54102802 C-39.14699242 556.94270161 -39.14699242 556.94270161 -40.09645653 556.33228779 C-40.70835838 555.946133 -41.32026024 555.55997822 -41.95070457 555.16212177 C-42.64704002 554.71731464 -43.34337547 554.27250751 -44.060812 553.81422138 C-45.52631128 552.87958925 -46.99335597 551.9473759 -48.46193504 551.01759052 C-50.74463761 549.57179592 -53.02173949 548.11746984 -55.29836082 546.66212177 C-114.70492083 508.78873766 -176.95526868 478.30920002 -244.02907372 456.79200459 C-247.17695438 455.7697126 -250.29893602 454.69444848 -253.42336082 453.60352802 C-262.30683711 450.63661507 -271.42988889 448.48273673 -280.51320457 446.22462177 C-281.48136101 445.98284199 -282.44951744 445.7410622 -283.44701195 445.49195576 C-300.43891363 441.26151679 -317.44397743 437.58778776 -334.70070457 434.59962177 C-335.54004539 434.45121845 -336.37938622 434.30281513 -337.24416161 434.14991474 C-341.74043491 433.3627047 -346.2442052 432.66443633 -350.76320457 432.02100849 C-352.98822475 431.70182757 -355.21197266 431.37376149 -357.43507957 431.0415163 C-382.13405365 427.35141117 -406.78736424 425.2051432 -431.70070457 423.59962177 C-431.90208848 400.86112598 -431.6193803 378.14153169 -431.11476707 355.40821552 C-431.09974372 354.73127785 -431.08472037 354.05434018 -431.06924176 353.35688925 C-430.8787475 344.80491013 -430.68093508 336.25310563 -430.48089856 327.70134509 C-430.28794272 319.44292083 -430.10113932 311.18435877 -429.91432762 302.92579365 C-429.84556484 299.88889701 -429.77675573 296.85200142 -429.70792198 293.81510639 C-429.69090089 293.06403004 -429.6738798 292.31295369 -429.65634292 291.53911746 C-429.53633192 286.24728813 -429.4154706 280.95547865 -429.29419518 275.66367817 C-428.69816052 249.64663131 -428.13152738 223.62899757 -427.57740593 197.6110239 C-427.47190567 192.66247237 -427.36583434 187.71393308 -427.25978661 182.76539326 C-427.07293779 174.04347981 -426.88658403 165.32155593 -426.70070457 156.59962177 C-426.051717 156.57816593 -425.40272942 156.55671009 -424.73407555 156.53460407 C-410.11814614 156.03733568 -395.57272952 155.29527579 -381.01320457 153.91212177 C-380.10615776 153.8269228 -379.19911095 153.74172382 -378.26457787 153.65394306 C-338.57217949 149.87449287 -298.70209952 142.97324974 -260.49513817 131.44093037 C-257.72134022 130.60583446 -254.94078985 129.7977973 -252.15773582 128.99415302 C-214.57813058 118.0135065 -178.67173929 103.10220293 -143.70070457 85.59962177 C-142.56681297 85.03662373 -141.43292137 84.47362568 -140.26466942 83.89356709 C-122.4781204 75.0297024 -105.54193834 65.10999809 -88.70070457 54.59962177 C-86.9054566 53.49102247 -85.10991 52.38290654 -83.31398582 51.27540302 C-72.82461156 44.77065582 -62.68428379 37.85416403 -52.70070457 30.59962177 C-51.92162743 30.034529 -51.14255028 29.46943623 -50.33986473 28.88721943 C-32.90605722 17.03123389 -32.90605722 17.03123389 -17.37071931 2.98695165 C-12.46188029 -1.05475839 -6.02268297 -0.06746299 0 0 Z " fill="#78BD1F" transform="translate(1743.700704574585,567.4003782272339)"/>
<path d="M0 0 C7.6903409 6.32316918 14.91564145 13.29087752 21.375 20.875 C25.08079594 25.22528219 29.15476174 29.18146528 33.21533203 33.19580078 C37.34835733 37.29991538 41.24588028 41.54511127 45 46 C45.33 46.33 45.66 46.66 46 47 C46.09600546 48.35346658 46.12175747 49.71198226 46.11949158 51.06884766 C46.11953721 51.95929779 46.11958284 52.84974792 46.11962986 53.7671814 C46.11358706 54.76440216 46.10754427 55.76162292 46.10131836 56.7890625 C46.09781592 57.84968903 46.09431349 58.91031555 46.09070492 60.00308228 C46.01478404 74.94663576 45.71163748 89.88798747 45.42714429 104.82870483 C45.34472305 109.17939561 45.26469442 113.53013056 45.18431091 117.88085938 C45.04880106 125.19631827 44.91156614 132.51174316 44.77319336 139.82714844 C44.61548377 148.16560191 44.46019784 156.50409763 44.30632645 164.84262276 C44.15593967 172.99042186 44.00404105 181.13819211 43.85142326 189.28594971 C43.78764 192.69150041 43.72428434 196.09705861 43.66131783 199.50262451 C43.57199968 204.32469491 43.48118639 209.14673519 43.38891602 213.96875 C43.37377272 214.76080463 43.35862942 215.55285927 43.34302723 216.36891556 C43.17809311 224.9160064 42.99567087 233.46220952 42.76559448 242.0078125 C42.74526632 242.7654615 42.72493815 243.5231105 42.70399398 244.30371857 C42.67312814 245.4537801 42.67312814 245.4537801 42.64163876 246.6270752 C42.59949348 248.19929854 42.55740788 249.77152349 42.51538086 251.34375 C42.49466935 252.11814926 42.47395785 252.89254852 42.45261872 253.69041443 C41.71297546 281.78756123 41.39927917 309.89636414 41 338 C74.22358196 338.17052439 107.44655446 338.27170237 140.67055145 338.28166701 C144.60523771 338.28290571 148.53992352 338.28471038 152.47460938 338.28686523 C153.25783622 338.28728466 154.04106307 338.28770408 154.84802407 338.28813621 C167.48060673 338.29624634 180.11259342 338.35006052 192.74496061 338.42118094 C205.73583447 338.49328673 218.72611976 338.51531398 231.71717596 338.49218339 C239.71464068 338.47948237 247.71007354 338.50446081 255.70720118 338.57981863 C261.87055081 338.63367995 268.03202539 338.61739651 274.19543457 338.5768013 C276.70099184 338.57082383 279.2067236 338.58649565 281.71195984 338.62704659 C300.67522869 338.91499252 313.11633489 334.18888851 329 324 C330.29973593 323.21861503 331.60328435 322.44349467 332.91246796 321.67804432 C335.69173792 320.051796 338.41190506 318.35892519 341.125 316.625 C342.58909302 315.69892944 342.58909302 315.69892944 344.08276367 314.75415039 C369.85601832 298.34090799 394.68870948 280.47546754 417.91796875 260.61328125 C420.73635029 258.20918687 423.61171953 255.88232006 426.5 253.5625 C431.88365967 249.18483805 436.94459394 244.5040882 442.01171875 239.76953125 C444.29393584 237.64083608 446.61986551 235.58185621 449 233.5625 C453.29809775 229.8563013 457.23296562 225.79538036 461.21826172 221.76025391 C464.09630503 218.85879147 466.98896736 216.06376602 470.125 213.4375 C473.98785794 210.15771496 477.33193168 206.4509764 480.71435547 202.69213867 C483.95705354 199.09965007 487.30215228 195.64549945 490.75 192.25 C494.39362839 188.64244714 497.87190421 184.9811039 501.19921875 181.08203125 C503.37324202 178.56846422 505.62390488 176.13223771 507.875 173.6875 C511.92521292 169.24749216 515.75534122 164.68065719 519.52734375 160.00390625 C522.4088329 156.50332938 525.38735362 153.09734225 528.375 149.6875 C534.05483827 143.18234376 539.4557242 136.50283124 544.72216797 129.66015625 C545.93654725 128.08243766 547.15754853 126.50982258 548.37890625 124.9375 C552.82331115 119.19711542 557.21575997 113.41738261 561.58569336 107.62011719 C562.90271978 105.87449195 564.225154 104.13293353 565.55297852 102.39550781 C568.34484606 98.71050979 571.04374134 95.10413912 573.2578125 91.0390625 C577.51578904 83.50571938 581.37691066 80.79615089 589.5 78.5 C592.1574502 77.81872729 594.81939471 77.1842969 597.49560547 76.58105469 C601.06809878 75.75218609 604.55599541 74.69378573 608.0625 73.625 C609.44490038 73.21864744 610.82773469 72.81376896 612.2109375 72.41015625 C615.90710628 71.32525487 619.59851405 70.22495824 623.2890625 69.12109375 C634.81664189 65.67853184 646.35106625 62.32508023 657.97631836 59.2277832 C665.53903808 57.18623171 672.98920202 54.83896477 680.41918945 52.35913086 C686.22029238 50.45156347 691.98669318 49.06381858 698 48 C694.13753282 55.38303017 689.59609317 62.20536234 684.875 69.0625 C684.11076211 70.178165 683.34684946 71.29405285 682.58325195 72.41015625 C681.07646163 74.61109943 679.56700109 76.81013294 678.05615234 79.00830078 C676.32113622 81.53274718 674.5905787 84.0601146 672.86328125 86.58984375 C662.16410944 102.24071412 651.15721008 117.67298887 640 133 C639.43522949 133.77633789 638.87045898 134.55267578 638.28857422 135.35253906 C623.84285194 155.1761636 608.70533344 174.45298584 593.1328125 193.40234375 C591.70582263 195.14034424 590.28397205 196.88257657 588.8671875 198.62890625 C580.28064404 209.20051083 571.43129633 219.52105067 562.2265625 229.55859375 C560.30866793 231.66154833 558.42623955 233.78669156 556.5625 235.9375 C552.30453676 240.8292066 547.91235176 245.59680896 543.51123047 250.359375 C542.04382911 251.95241816 540.58590705 253.55369714 539.12890625 255.15625 C531.0305268 264.00416721 522.59627614 272.51153008 514.125 281 C513.5371875 281.5904007 512.949375 282.18080139 512.34375 282.78909302 C506.6308802 288.5217881 500.9381193 294.21556386 494.77539062 299.46972656 C491.64801591 302.16532402 488.68346586 305.03531074 485.6875 307.875 C480.4605134 312.79493773 475.14137138 317.45374682 469.53125 321.93359375 C466.99861847 324.00112782 464.5926884 326.16113341 462.1875 328.375 C456.68671627 333.37492744 450.86391009 337.91866382 444.98632812 342.45947266 C442.8945743 344.08176452 440.81374211 345.71733548 438.734375 347.35546875 C401.14454986 376.91041708 360.68374493 402.46305852 318 424 C316.90187988 424.55445801 315.80375977 425.10891602 314.67236328 425.68017578 C295.83416298 435.12727326 276.65478615 443.40725805 257 451 C256.34950684 451.25199158 255.69901367 451.50398315 255.02880859 451.76361084 C238.51600131 458.14940695 221.92565229 463.72616218 204.79785156 468.24121094 C202.22065861 468.94015646 199.66904383 469.69081256 197.1171875 470.4765625 C146.24793279 486.07174462 90.16005606 494.09897844 37 493 C37.01080093 494.68206795 37.01080093 494.68206795 37.02182007 496.39811707 C37.22899399 532.40115825 36.58716854 568.36868911 35.78019398 604.35964632 C35.65773229 609.82591858 35.53785864 615.29224283 35.41952515 620.75860596 C34.41429862 667.17580033 33.3405318 713.59110472 32 760 C32.92143799 759.99442581 33.84287598 759.98885162 34.79223633 759.98310852 C41.11742717 759.96081375 47.38273685 759.96639757 53.6875 760.48046875 C54.34110504 760.53329514 54.99471008 760.58612152 55.66812134 760.64054871 C57.7795166 760.81489249 59.88975016 760.99982543 62 761.1875 C62.74078796 761.2521344 63.48157593 761.3167688 64.24481201 761.38336182 C90.05808951 763.65889172 115.76294287 766.87512174 141.09765625 772.38378906 C144.09019974 773.01915075 147.08880273 773.60599839 150.09375 774.1796875 C171.35327057 778.2475265 192.46450177 783.12690455 213.00439453 790.00390625 C215.99121178 790.99707775 218.98391149 791.97035559 221.97819519 792.94070435 C276.47200289 810.62132136 329.71475478 833.68809208 378.70214844 863.59765625 C380.39528366 864.63095084 382.09174867 865.65879409 383.79003906 866.68359375 C414.57008632 885.25962227 444.17456197 905.52028701 473 927 C473.83595703 927.62052246 474.67191406 928.24104492 475.53320312 928.88037109 C485.32508917 936.15004843 495.01756182 943.51018215 504.5 951.1796875 C507.36219971 953.49451532 510.2518493 955.77106112 513.1550293 958.03417969 C525.84630832 967.9277928 538.18957667 978.250211 550.44384766 988.67773438 C552.56390563 990.4791517 554.69005511 992.27331154 556.81591797 994.06787109 C559.54718308 996.37476619 562.27418978 998.68666353 565 1001 C565.57927246 1001.49145508 566.15854492 1001.98291016 566.75537109 1002.48925781 C573.79520844 1008.46956214 580.74155685 1014.52300759 587.55078125 1020.765625 C590.32499872 1023.29649006 593.14707121 1025.76639391 595.98046875 1028.23046875 C600.02667681 1031.77579225 604.00623703 1035.39587244 608 1039 C608.804375 1039.721875 609.60875 1040.44375 610.4375 1041.1875 C616.48998772 1046.61921975 622.49260661 1052.10381585 628.48095703 1057.60595703 C629.95289916 1058.95677503 631.42757736 1060.30460973 632.90234375 1061.65234375 C640.31914338 1068.4319955 647.67594025 1075.27392785 655.01171875 1082.14111328 C657.04671554 1084.04367536 659.08556729 1085.94203831 661.125 1087.83984375 C668.0046659 1094.25199106 674.81122671 1100.70099584 681.375 1107.4375 C683.39352446 1109.40796435 685.42126177 1111.23472139 687.5625 1113.0625 C693.9013422 1118.55695609 699.69244474 1124.63660606 705.58203125 1130.60253906 C710.90328811 1135.98651545 716.21900192 1141.29729227 721.98046875 1146.21630859 C726.33181038 1150.05950273 730.39486241 1154.21034579 734.5 1158.3125 C735.4178125 1159.21806641 736.335625 1160.12363281 737.28125 1161.05664062 C738.580625 1162.35311523 738.580625 1162.35311523 739.90625 1163.67578125 C741.08670898 1164.8500769 741.08670898 1164.8500769 742.29101562 1166.0480957 C744 1168 744 1168 744 1170 C743.36876221 1170.27336182 742.73752441 1170.54672363 742.0871582 1170.82836914 C738.82885356 1172.23954936 735.57064816 1173.65095853 732.3125 1175.0625 C731.67531036 1175.33855072 731.03812073 1175.61460144 730.38162231 1175.89901733 C720.75545368 1180.0696982 711.13109218 1184.24453265 701.5078125 1188.421875 C700.4106189 1188.89814835 699.31342529 1189.37442169 698.1829834 1189.86512756 C697.06911255 1190.34864182 695.9552417 1190.83215607 694.80761719 1191.33032227 C654.74240185 1208.72197867 654.74240185 1208.72197867 636.64233398 1216.53271484 C630.22910904 1219.30093396 623.81868046 1222.07483554 617.42100525 1224.87884521 C614.61070541 1226.11049927 611.79899444 1227.33891458 608.98727417 1228.56732178 C607.06291624 1229.40995053 605.14094163 1230.25784843 603.21899414 1231.10595703 C602.07422607 1231.60595215 600.92945801 1232.10594727 599.75 1232.62109375 C598.75484375 1233.0586499 597.7596875 1233.49620605 596.734375 1233.94702148 C594.11507877 1234.9556844 591.79126213 1235.6994809 589 1236 C586.859375 1234.296875 586.859375 1234.296875 584.75 1231.75 C583.96882813 1230.82445312 583.18765625 1229.89890625 582.3828125 1228.9453125 C581.20332031 1227.48738281 581.20332031 1227.48738281 580 1226 C579.27554687 1225.11054687 578.55109375 1224.22109375 577.8046875 1223.3046875 C576.33091721 1221.49284804 574.8596273 1219.67898864 573.390625 1217.86328125 C569.91898846 1213.70525905 566.24393928 1209.74894574 562.5625 1205.77734375 C559.89638085 1202.88769327 557.30401647 1199.94490996 554.7265625 1196.9765625 C548.53926386 1189.89336541 542.16391247 1182.97572023 535.80078125 1176.05078125 C534.00235078 1174.09353802 532.20880554 1172.13219973 530.41796875 1170.16796875 C527.62148525 1167.103157 524.81360462 1164.04908201 522 1161 C521.48301041 1160.43944412 520.96602081 1159.87888824 520.43336487 1159.30134583 C508.69617707 1146.6150694 496.52895305 1134.37286352 484.29736328 1122.16699219 C481.52625038 1119.4016398 478.75974187 1116.63173085 475.99447632 1113.86053276 C473.82912624 1111.6915509 471.66137803 1109.52497834 469.49291992 1107.35910416 C468.47166946 1106.33851241 467.4511379 1105.3172007 466.43139648 1104.29510117 C460.7895987 1098.64309061 455.06360576 1093.19530551 449 1088 C447.65740533 1086.77045367 446.32150538 1085.53343535 445 1084.28125 C444.34 1083.65863281 443.68 1083.03601562 443 1082.39453125 C441.66666667 1081.13151042 440.33333333 1079.86848958 439 1078.60546875 C435.00565804 1074.83736882 430.94620278 1071.16694898 426.79931641 1067.56738281 C424.56412587 1065.62031046 422.37529997 1063.62505531 420.1875 1061.625 C415.89391368 1057.74966257 411.46911998 1054.0777869 406.97265625 1050.44140625 C403.66248321 1047.72280159 400.42511457 1044.92908145 397.1875 1042.125 C391.43876429 1037.16193269 385.54501399 1032.42635282 379.546875 1027.76953125 C377.16176827 1025.91627439 374.79917008 1024.03917847 372.453125 1022.13671875 C363.2924851 1014.70840316 353.89593419 1007.65213285 344.35693359 1000.71728516 C342.14432425 999.10515608 339.94031962 997.48199185 337.73828125 995.85546875 C290.51189572 961.14032639 239.14217005 930.6061661 185 908 C183.91041992 907.54463867 182.82083984 907.08927734 181.69824219 906.62011719 C141.52338302 890.00131734 99.56775439 876.73228196 56.46484375 870.54296875 C53 870 53 870 50 869 C47.35445969 868.63782978 44.71465059 868.30391699 42.0625 868 C37.98025153 867.52967794 33.97886958 867.05765327 30 866 C30.00466782 867.2491922 30.00933563 868.4983844 30.0141449 869.78543091 C30.04841756 883.19271905 29.8702699 896.58799953 29.59765625 909.9921875 C29.55506454 912.15560624 29.51262333 914.31902796 29.47032166 916.48245239 C29.38164619 920.9953269 29.2915941 925.508171 29.20043945 930.02099609 C29.08625186 935.676451 28.97483801 941.33195598 28.86443424 946.98748589 C28.77697201 951.45665324 28.68828057 955.92579561 28.59924126 960.39493179 C28.55791703 962.47275361 28.51685731 964.55058071 28.4761219 966.62841415 C28.22311458 979.47749876 27.91654408 992.32451433 27.57721889 1005.171556 C27.08090659 1024.00256292 26.69571075 1042.83387963 26.36924744 1061.66853714 C26.27848934 1066.9030337 26.18490195 1072.13747778 26.09094238 1077.37191772 C25.8247982 1092.22021887 25.56209583 1107.06857959 25.30224609 1121.91699219 C25.15731431 1130.1973412 25.01009869 1138.47764664 24.86051702 1146.75791299 C24.78218432 1151.10017316 24.70499264 1155.44244637 24.63075256 1159.78477859 C24.33249634 1177.20355397 24.01488882 1194.6045815 23 1212 C21.89171832 1211.05748796 20.78450575 1210.1137187 19.67773438 1209.16943359 C19.06103882 1208.6440097 18.44434326 1208.11858582 17.80895996 1207.57723999 C11.33861124 1201.93571504 5.43784008 1195.61938932 -0.125 1189.09375 C-2.93600311 1185.95479653 -5.95267797 1183.02649319 -8.95092773 1180.06860352 C-12.20000607 1176.84633552 -15.22443863 1173.50659355 -18.19140625 1170.02734375 C-20.36958492 1167.58571366 -22.67248008 1165.29951968 -25 1163 C-27.93118191 1160.10408042 -30.76403174 1157.19757429 -33.4375 1154.0625 C-36.301722 1150.71075086 -39.36331079 1147.59440865 -42.5 1144.5 C-46.36166876 1140.68076716 -50.05150395 1136.79922534 -53.5625 1132.65625 C-54.94009111 1130.97530359 -54.94009111 1130.97530359 -56.57566833 1129.70716858 C-58.50773567 1127.39144063 -58.32528016 1126.01296218 -58.22680664 1123.02905273 C-58.19934357 1122.04419891 -58.17188049 1121.05934509 -58.14358521 1120.04464722 C-58.09620209 1119.03991364 -58.04881897 1118.03518005 -58 1117 C-57.96075409 1116.09992218 -57.92150818 1115.19984436 -57.881073 1114.27249146 C-57.73439041 1111.35825598 -57.55566187 1108.44723422 -57.37109375 1105.53515625 C-57.22474558 1103.10752445 -57.07877485 1100.67986989 -56.93310547 1098.25219727 C-56.8522425 1096.91895249 -56.77132898 1095.58571079 -56.69036865 1094.25247192 C-54.28675704 1054.53845504 -52.34690397 1014.79970292 -50.375 975.0625 C-50.33680948 974.29303118 -50.29861896 973.52356236 -50.25927114 972.73077631 C-49.59449935 959.33620526 -48.93050768 945.94159541 -48.26814777 932.54690486 C-47.20403058 911.02995641 -46.11904802 889.51416434 -45 868 C-57.33405768 868.99123647 -69.66754198 869.98903143 -82 871 C-82.79462646 871.06507751 -83.58925293 871.13015503 -84.40795898 871.19720459 C-110.04194277 873.29977183 -135.60654564 875.75432797 -161.125 879 C-162.34477539 879.1539624 -163.56455078 879.3079248 -164.82128906 879.46655273 C-180.57620907 881.51392815 -196.12621114 884.27067149 -211.625 887.75 C-212.40402679 887.92429535 -213.18305359 888.0985907 -213.98568726 888.27816772 C-246.37625203 895.55865548 -277.8690399 906.02299895 -308 920 C-309.51086182 920.69778564 -309.51086182 920.69778564 -311.05224609 921.40966797 C-361.25898796 944.72522707 -408.05716145 975.41156155 -450.05078125 1011.484375 C-452.87306382 1013.89172596 -455.73803723 1016.23338476 -458.625 1018.5625 C-463.38950808 1022.43929769 -467.9364389 1026.51471532 -472.45703125 1030.671875 C-474.57067054 1032.60694262 -476.70659848 1034.50208297 -478.875 1036.375 C-486.59068277 1043.08843944 -494.14537525 1050.02161045 -501.29931641 1057.33178711 C-502.94702236 1058.94803385 -504.65167718 1060.43235968 -506.4140625 1061.921875 C-511.81811344 1066.6251142 -516.84664488 1071.69685735 -521.90014648 1076.76977539 C-523.5592732 1078.43426277 -525.22368051 1080.09333447 -526.88867188 1081.75195312 C-531.96032156 1086.82076203 -536.93815472 1091.92286803 -541.59741211 1097.37915039 C-543.45982301 1099.53137771 -545.45793745 1101.51889454 -547.5 1103.5 C-550.80263851 1106.76384913 -553.90050648 1110.1141419 -556.921875 1113.63671875 C-559.71845612 1116.81704127 -562.60992784 1119.90474452 -565.5 1123 C-570.09093366 1127.92608535 -574.62250541 1132.88212578 -579 1138 C-579.87622321 1139.02220303 -580.75253345 1140.04433146 -581.62890625 1141.06640625 C-583.14327815 1142.83300549 -584.6571143 1144.60005129 -586.16943359 1146.3684082 C-589.4358806 1150.18566982 -592.72209533 1153.98487039 -596.02148438 1157.77368164 C-601.02482074 1163.52121297 -605.94465069 1169.31659836 -610.7421875 1175.23828125 C-614.24662781 1179.52485443 -617.83684381 1183.73785853 -621.421875 1187.95703125 C-624.04401767 1190.96226916 -624.04401767 1190.96226916 -626.29296875 1194.2421875 C-629.74109402 1197.75499622 -632.88730696 1198.4566057 -637.5625 1199.3125 C-638.46202393 1199.49707764 -639.36154785 1199.68165527 -640.28833008 1199.87182617 C-642.47374564 1200.31771264 -644.66143153 1200.75253542 -646.85058594 1201.1796875 C-651.95388345 1202.17932539 -657.04226704 1203.25019613 -662.1328125 1204.3125 C-670.03794851 1205.95579306 -677.9438873 1207.59502376 -685.85546875 1209.20703125 C-686.73272614 1209.38802368 -687.60998352 1209.56901611 -688.51382446 1209.75549316 C-689.32419159 1209.91972778 -690.13455872 1210.0839624 -690.96948242 1210.25317383 C-691.67811935 1210.39797684 -692.38675629 1210.54277985 -693.11686707 1210.69197083 C-695 1211 -695 1211 -698 1211 C-696.56408134 1203.38722453 -694.06222308 1196.49425368 -691.1875 1189.3125 C-690.69958984 1188.08772949 -690.21167969 1186.86295898 -689.70898438 1185.60107422 C-688.157892 1181.72641163 -686.58292053 1177.86175366 -685 1174 C-684.26644287 1172.20876709 -684.26644287 1172.20876709 -683.51806641 1170.38134766 C-670.9082328 1139.87855882 -656.25513479 1110.14714881 -639 1082 C-637.8786995 1080.14726053 -636.75760665 1078.29439537 -635.63671875 1076.44140625 C-614.70546014 1042.05040638 -589.98033185 1010.02127305 -562.5 980.61767578 C-560.98615126 978.98506482 -559.49094668 977.33712739 -558 975.68359375 C-552.19609295 969.26795414 -546.19106652 963.27091645 -539.75 957.49609375 C-537.34010534 955.30870357 -535.030454 953.0705401 -532.75 950.75 C-528.99987857 946.95395871 -525.05173918 943.46909239 -521 940 C-519.99288348 939.11787901 -518.986424 938.23500755 -517.98046875 937.3515625 C-509.71673146 930.13302666 -501.15164795 923.3966282 -492.37939453 916.80883789 C-490.61935038 915.47083593 -488.87222049 914.11580781 -487.13232422 912.75170898 C-478.76610475 906.19566607 -470.10970991 900.18040176 -461.25 894.3125 C-460.17517868 893.59841476 -460.17517868 893.59841476 -459.0786438 892.86990356 C-394.42842332 849.96985482 -322.24891554 817.21787552 -247.17578125 797.38671875 C-243.82395135 796.49992853 -240.49139171 795.56992971 -237.16796875 794.58203125 C-177.11205772 776.73440409 -114.36968894 767.47271555 -52.2109375 760.80078125 C-51.44496246 760.71757126 -50.67898743 760.63436127 -49.88980103 760.54862976 C-46.23935518 760.16899897 -42.66763415 759.96707907 -39 760 C-38.95285386 758.90446682 -38.90570772 757.80893364 -38.85713291 756.68020248 C-37.57081527 726.88618935 -36.13299254 697.10163017 -34.60892367 667.31890202 C-34.36976783 662.64261824 -34.13147359 657.96629067 -33.89313084 653.28996539 C-33.33160744 642.27380459 -32.7684794 631.25772664 -32.2043457 620.24169922 C-31.6246279 608.92065535 -31.04806206 597.5994538 -30.47290272 586.2781775 C-29.97456626 576.47159175 -29.47415526 566.66511332 -28.97211033 556.85871673 C-28.67409166 551.03695878 -28.37688062 545.21516251 -28.08175468 539.39325714 C-27.80586971 533.95240638 -27.52739647 528.51169416 -27.2469368 523.07107735 C-27.14482356 521.08174679 -27.04362318 519.09236912 -26.9434185 517.10294151 C-26.80624327 514.38239655 -26.66572675 511.66204338 -26.5243988 508.94171143 C-26.48587545 508.1620685 -26.4473521 507.38242558 -26.40766138 506.57915711 C-26.13155624 501.35666826 -25.61571513 496.19368825 -25 491 C-26.05525879 491.0467688 -26.05525879 491.0467688 -27.13183594 491.09448242 C-37.68151415 491.3443607 -47.83962493 489.8660117 -58.25 488.3125 C-59.184953 488.17517456 -60.11990601 488.03784912 -61.08319092 487.8963623 C-163.52893451 472.82238718 -261.55748655 433.06658521 -364 359 C-364.72960937 358.443125 -365.45921875 357.88625 -366.2109375 357.3125 C-375.31192977 350.35474482 -384.21339609 343.23982498 -392.8515625 335.71484375 C-395.6122722 333.31484235 -398.44781209 331.02540526 -401.3125 328.75 C-408.49688486 322.91400409 -415.11024731 316.45801726 -421.80810547 310.07861328 C-424.60065486 307.43038812 -427.4178687 304.80934267 -430.23583984 302.18823242 C-439.98461586 293.10946319 -449.76258961 283.99072779 -458.39453125 273.82421875 C-460.18310628 271.79194494 -462.07118753 269.89942105 -464 268 C-467.21434731 264.8288397 -470.21750963 261.54417247 -473.16015625 258.12109375 C-475.19508819 255.77508942 -477.28290967 253.4826355 -479.375 251.1875 C-483.2704657 246.87090287 -486.96858218 242.4259887 -490.625 237.90625 C-492.71638588 235.34705412 -494.84067364 232.8240847 -496.98754883 230.31176758 C-503.20420959 223.03401919 -509.15557969 215.5789278 -515 208 C-515.61037109 207.21028809 -516.22074219 206.42057617 -516.84960938 205.60693359 C-525.27969646 194.68235627 -533.52287324 183.66405569 -541.38378906 172.32275391 C-543.17938137 169.74220025 -544.9914703 167.17366664 -546.8046875 164.60546875 C-555.93222703 151.63969883 -564.6084291 138.45202422 -573 125 C-574.0897057 123.26553826 -575.17954802 121.53116234 -576.26953125 119.796875 C-583.96970504 107.4956183 -591.32629564 95.0061408 -598.58056641 82.4375 C-599.58188767 80.71799683 -600.64268185 79.03246777 -601.74365234 77.375 C-602.15824707 76.59125 -602.5728418 75.8075 -603 75 C-602.505 73.515 -602.505 73.515 -602 72 C-599.55419922 71.08032227 -599.55419922 71.08032227 -596.3046875 70.31640625 C-595.12205322 70.03095947 -593.93941895 69.7455127 -592.72094727 69.45141602 C-591.45178467 69.15807373 -590.18262207 68.86473145 -588.875 68.5625 C-587.56857435 68.25009608 -586.26250256 67.9362087 -584.95678711 67.62084961 C-582.41047972 67.00749613 -579.86321969 66.39808162 -577.31494141 65.79296875 C-568.94098573 63.78983073 -560.65433882 61.46066164 -552.359375 59.15625 C-538.96924859 55.43955877 -525.57267825 51.83442252 -512.07861328 48.51611328 C-498.81669725 45.22322034 -485.67030408 41.44365419 -472.5 37.8046875 C-471.35660156 37.49112305 -470.21320313 37.17755859 -469.03515625 36.85449219 C-466.64811165 36.18246387 -464.29667701 35.45580315 -461.9375 34.6953125 C-458.66213991 33.9200278 -457.08310671 33.61260198 -454 35 C-452.27144259 37.28242615 -450.89750911 39.40174204 -449.5 41.875 C-448.62093159 43.35249448 -447.73794703 44.82766426 -446.8515625 46.30078125 C-446.15595215 47.462146 -446.15595215 47.462146 -445.44628906 48.64697266 C-443.05257583 52.54140347 -440.47125735 56.30118408 -437.875 60.0625 C-437.33552734 60.84536377 -436.79605469 61.62822754 -436.24023438 62.43481445 C-434.49677879 64.95883511 -432.74841989 67.47941618 -431 70 C-429.69003031 71.8957823 -428.38013687 73.79161729 -427.0703125 75.6875 C-415.0366099 93.07644691 -402.71420938 110.1783422 -389.84765625 126.9609375 C-386.9717971 130.71551169 -384.13558542 134.49642532 -381.32177734 138.29760742 C-375.01196723 146.8125503 -368.34175144 154.99265571 -361.55419922 163.12988281 C-359.47418203 165.6326996 -357.42461745 168.15976203 -355.375 170.6875 C-347.81970746 179.9279879 -340.01529418 188.95613061 -331.9921875 197.79296875 C-330.23806619 199.73626001 -328.52027306 201.70359448 -326.8125 203.6875 C-316.05797527 215.98623931 -304.56555393 227.59590723 -293.00244141 239.12792969 C-290.6033127 241.52163831 -288.2096573 243.92072881 -285.81640625 246.3203125 C-284.26594595 247.87011282 -282.71517591 249.41960335 -281.1640625 250.96875 C-280.46181549 251.67302124 -279.75956848 252.37729248 -279.03604126 253.10290527 C-275.05404542 257.06630449 -270.97284877 260.85678827 -266.71513367 264.52297974 C-264.49969171 266.43085008 -262.34529355 268.40237613 -260.1875 270.375 C-255.94694317 274.19792623 -251.59757431 277.8468501 -247.15625 281.43359375 C-244.80091325 283.33779526 -242.47469982 285.27372361 -240.15625 287.22265625 C-230.79543831 295.06722581 -221.18737981 302.40293253 -211.20556641 309.43847656 C-209.06750374 310.95220789 -206.94425631 312.48459559 -204.82421875 314.0234375 C-185.40936582 329.70062166 -185.40936582 329.70062166 -162.98898315 337.15821838 C-161.70728241 337.1680072 -160.42558167 337.17779602 -159.1050415 337.18788147 C-157.67663612 337.19378606 -156.24823034 337.19959648 -154.81982422 337.20532227 C-153.32200854 337.21489808 -151.82419559 337.22490798 -150.3263855 337.23532104 C-146.25227106 337.26240834 -142.17814499 337.28339715 -138.10399008 337.30332303 C-133.84918175 337.32515904 -129.59440943 337.35255937 -125.33963013 337.37937927 C-117.27904225 337.42933848 -109.21843443 337.47426531 -101.15780747 337.51740164 C-91.9825794 337.56674646 -82.80738744 337.62167479 -73.63219428 337.67708123 C-54.7548297 337.79095081 -35.87743106 337.89777899 -17 338 C-17.01431785 336.9020171 -17.01431785 336.9020171 -17.02892494 335.78185272 C-17.09671799 326.23036175 -16.67216964 316.7394401 -16.17724609 307.20507812 C-16.08806883 305.44015516 -15.99918014 303.6752176 -15.91055393 301.91026688 C-15.66924794 297.1211783 -15.42389185 292.33230489 -15.17780566 287.54345989 C-14.91592854 282.43341101 -14.65784888 277.32317019 -14.39930725 272.21295166 C-13.90066419 262.36875576 -13.39857188 252.52473886 -12.89519542 242.68078399 C-12.3174455 231.38021656 -11.74298228 220.07948282 -11.16868579 208.77873945 C-10.20203181 189.75926626 -9.23254677 170.73993874 -8.26123047 151.72070312 C-7.29177151 132.7375424 -6.32760713 113.75411997 -5.36750436 94.77048397 C-4.91425882 85.81023034 -4.45913658 76.85007215 -4.00352859 67.88993835 C-3.69115002 61.74641652 -3.37937996 55.60286557 -3.0692749 49.45922852 C-2.78636254 43.85640011 -2.50111538 38.25369568 -2.21392632 32.6510849 C-2.11260416 30.66700258 -2.01209795 28.68287837 -1.91252327 26.69870758 C-1.01507245 8.83118742 -1.01507245 8.83118742 0 0 Z " fill="#CB0033" transform="translate(1280,231)"/>
<path d="M0 0 C0.33 0 0.66 0 1 0 C1 4.95 1 9.9 1 15 C87.46 15 173.92 15 263 15 C222.82334454 45.1324916 156.61269173 62.38468736 107.21875 69.359375 C104.18426966 69.79348368 101.19981318 70.35404296 98.19921875 70.98046875 C74.11396598 75.89723973 49.4729503 76.07099878 25 76.125 C24.15950104 76.12776947 23.31900208 76.13053894 22.45303345 76.13339233 C20.03114417 76.13922864 17.60938978 76.13738225 15.1875 76.1328125 C14.10440804 76.13576576 14.10440804 76.13576576 12.99943542 76.13877869 C8.4996638 76.11849176 4.51988588 75.64569798 0 75 C0 50.25 0 25.5 0 0 Z " fill="#78BD20" transform="translate(1320,554)"/>
<path d="M0 0 C0.02990257 3.49998088 0.04709088 6.9999277 0.0625 10.5 C0.07087891 11.46292969 0.07925781 12.42585938 0.08789062 13.41796875 C0.11602655 22.02756144 -0.45910522 30.34568354 -1 39 C-77.23 39 -153.46 39 -232 39 C-228.75180387 36.83453592 -225.85579711 35.81705031 -222.15625 34.57421875 C-221.47997559 34.34638199 -220.80370117 34.11854523 -220.10693359 33.88380432 C-217.90663671 33.1454947 -215.70376675 32.41538342 -213.5 31.6875 C-212.74581787 31.43778442 -211.99163574 31.18806885 -211.21459961 30.93078613 C-176.1810555 19.35916812 -140.0786457 12.36408928 -103.43408203 8.375 C-100.06845683 8.00747545 -96.7041286 7.62957555 -93.33984375 7.25 C-74.58816593 5.15952863 -55.80523362 3.51729537 -37 2 C-36.32855957 1.94565796 -35.65711914 1.89131592 -34.96533203 1.83532715 C-30.62343146 1.48487298 -26.28078041 1.14538469 -21.9375 0.8125 C-20.33442993 0.68669556 -20.33442993 0.68669556 -18.69897461 0.55834961 C-12.45268276 0.09434508 -6.26306108 -0.10119847 0 0 Z " fill="#7ABC1F" transform="translate(1235,1099)"/>
<path d="M0 0 C49.5 0 99 0 150 0 C150 29.90878378 150 29.90878378 149 41.625 C148.90460938 42.84316406 148.80921875 44.06132813 148.7109375 45.31640625 C148.48295418 48.21179437 148.24623211 51.10611786 148 54 C141.13002029 53.46794745 134.5753223 52.40286812 127.875 50.8125 C126.92979492 50.59110352 125.98458984 50.36970703 125.01074219 50.14160156 C123.01318128 49.67093079 121.016444 49.19675197 119.02050781 48.71923828 C116.06632916 48.01579419 113.1078246 47.33348825 110.1484375 46.65234375 C71.2691307 37.5274765 34.48326116 20.93864542 0 1 C0 0.67 0 0.34 0 0 Z " fill="#78BC20" transform="translate(1112,569)"/>
<path d="M0 0 C11.06276189 0.95465458 21.87490313 2.13420817 32.73632812 4.51855469 C35.45921351 5.09766707 38.18943695 5.63184754 40.921875 6.1640625 C52.71405888 8.46331934 64.38127431 10.94406173 76 14 C77.11890625 14.28593018 78.2378125 14.57186035 79.390625 14.86645508 C89.18664528 17.40537597 98.78138748 20.41035681 108.375 23.625 C109.14960571 23.88301392 109.92421143 24.14102783 110.72229004 24.40686035 C124.70805903 29.0759677 138.41277232 34.26488123 152 40 C152 40.33 152 40.66 152 41 C101.51 41 51.02 41 -1 41 C-1 17.99324324 -1 17.99324324 -0.5 9.25 C-0.45230469 8.33863281 -0.40460938 7.42726563 -0.35546875 6.48828125 C-0.24162612 4.32527125 -0.12159131 2.16258825 0 0 Z " fill="#79BD1F" transform="translate(1310,1097)"/>
</svg>
